<?xml version="1.0" encoding="UTF-8"?>
<!DOCTYPE svg PUBLIC "-//W3C//DTD SVG 1.1//EN" "http://www.w3.org/Graphics/SVG/1.1/DTD/svg11.dtd">
<!-- Creator: CorelDRAW -->
<svg xmlns="http://www.w3.org/2000/svg" xml:space="preserve" width="1.70666in" height="1.70666in" version="1.1" style="shape-rendering:geometricPrecision; text-rendering:geometricPrecision; image-rendering:optimizeQuality; fill-rule:evenodd; clip-rule:evenodd"
viewBox="0 0 1706.66 1706.66"
 xmlns:xlink="http://www.w3.org/1999/xlink"
 xmlns:xodm="http://www.corel.com/coreldraw/odm/2003">
 <defs>
  <style type="text/css">
   <![CDATA[
    .fil0 {fill:black}
   ]]>
  </style>
 </defs>
 <g id="Layer_x0020_1">
  <metadata id="CorelCorpID_0Corel-Layer"/>
  <path class="fil0" d="M285.08 1195.49c-8.37,0 -16.17,-5.29 -18.97,-13.65l-159.24 -475.58c-8.35,-24.97 29.57,-37.68 37.94,-12.69l159.23 475.57c4.35,12.99 -5.43,26.36 -18.96,26.36zm1136.49 0c-13.54,0 -23.32,-13.34 -18.96,-26.35l159.24 -475.57c8.37,-25 46.28,-12.26 37.91,12.69l-159.24 475.57c-2.79,8.36 -10.58,13.65 -18.96,13.65zm-312.23 -275.66c-7.55,0 -14.44,-4.22 -17.85,-10.98l-224.16 -443.93c-11.86,-23.51 23.83,-41.56 35.71,-18.03l214.79 425.35 408.57 -226.98c23.01,-12.79 42.45,22.18 19.42,34.98l-426.76 237.09c-3,1.67 -6.35,2.52 -9.71,2.52zm-512.04 0c-3.36,0 -6.71,-0.86 -9.71,-2.53l-426.75 -237.07c-23.02,-12.78 -3.6,-47.78 19.42,-34.98l408.56 226.98 214.78 -425.35c11.87,-23.52 47.59,-5.48 35.72,18.03l-224.16 443.93c-3.41,6.74 -10.31,10.98 -17.86,10.98z"/>
  <path class="fil0" d="M1400.47 1424.83l-1094.3 0c-55.32,0 -100.32,-45.01 -100.32,-100.33l0 -71.53c0,-55.3 45,-100.33 100.32,-100.33l1094.3 0c55.31,0 100.33,45.01 100.33,100.33l0 71.52c0,55.31 -45.01,100.33 -100.33,100.33zm-1094.3 -232.15c-33.26,0 -60.32,27.06 -60.32,60.32l0 71.52c0,33.26 27.06,60.32 60.32,60.32l1094.3 -0c33.26,0 60.32,-27.06 60.32,-60.32l0 -71.53c0,-33.26 -27.06,-60.31 -60.32,-60.31l-1094.3 0z"/>
  <path class="fil0" d="M1317.28 804.24c-7.29,0 -14.33,-4.02 -17.86,-10.99l-81.89 -161.93c-11.87,-23.51 23.82,-41.53 35.71,-18.06l81.89 161.93c6.78,13.41 -3.2,29.04 -17.84,29.04zm-307.06 -80.73c-19.4,0 -27.51,-25.16 -11.48,-36.38l144.83 -101.37c21.51,-15.05 44.43,17.73 22.94,32.77l-144.83 101.37c-3.5,2.44 -7.5,3.61 -11.46,3.61z"/>
  <path class="fil0" d="M390.6 804.24c-14.64,0 -24.62,-15.6 -17.83,-29.03l81.89 -161.93c11.91,-23.52 47.57,-5.42 35.7,18.06l-81.89 161.93c-3.53,6.96 -10.57,10.97 -17.86,10.97zm307.06 -80.73c-3.96,0 -7.96,-1.17 -11.44,-3.61l-144.83 -101.37c-21.48,-15.05 1.44,-47.78 22.93,-32.77l144.83 101.37c16,11.21 7.94,36.38 -11.49,36.38z"/>
  <path class="fil0" d="M853.32 482.47c-55.3,0 -100.31,-45 -100.31,-100.31 0,-55.31 45,-100.32 100.31,-100.32 55.32,0 100.33,45 100.33,100.32 0,55.31 -45.03,100.31 -100.33,100.31zm0 -160.63c-79.39,0 -79.39,120.64 0,120.64 79.39,0 79.39,-120.64 0,-120.64z"/>
  <path class="fil0" d="M1606.31 724.05c-55.31,0 -100.32,-45 -100.32,-100.31 0,-55.32 45,-100.32 100.32,-100.32 55.31,0 100.33,45 100.33,100.32 0,55.31 -45.03,100.31 -100.33,100.31zm0 -160.63c-79.37,0 -79.37,120.63 0,120.63 79.4,0 79.38,-120.63 0,-120.63z"/>
  <path class="fil0" d="M100.33 724.05c-55.31,0 -100.32,-45 -100.32,-100.31 0,-55.32 45,-100.32 100.32,-100.32 55.31,0 100.31,45 100.31,100.32 0,55.31 -45,100.31 -100.31,100.31zm0 -160.63c-79.39,0 -79.39,120.63 0,120.63 79.39,0 79.39,-120.63 0,-120.63z"/>
  <path class="fil0" d="M501.04 649.11c-109.54,0 -109.54,-166.46 0,-166.46 109.55,0 109.55,166.46 0,166.46zm0 -126.47c-56.91,0 -56.9,86.46 0,86.46 56.9,0 56.91,-86.46 0,-86.46z"/>
  <path class="fil0" d="M1206.83 649.11c-109.55,0 -109.55,-166.46 0,-166.46 109.56,0 109.57,166.46 0,166.46zm0 -126.47c-56.9,0 -56.88,86.46 0,86.46 56.89,0 56.91,-86.46 0,-86.46z"/>
  <path class="fil0" d="M853.32 1088.66c-6.36,0 -12.36,-3.04 -16.13,-8.18l-121.58 -165.67c-5.17,-7.04 -5.17,-16.61 0,-23.65l121.58 -165.67c7.54,-10.26 24.71,-10.26 32.25,0l121.58 165.67c5.17,7.04 5.17,16.61 0,23.65l-121.58 165.67c-3.76,5.15 -9.76,8.18 -16.13,8.18zm-96.77 -185.67l96.77 131.86 96.78 -131.86 -96.78 -131.85 -96.77 131.85z"/>
  <path class="fil0" d="M1300.1 1076.12c-95.71,0 -95.67,-145.43 0,-145.43 95.69,0 95.72,145.43 0,145.43zm0 -105.43c-43.03,0 -43.03,65.4 0,65.4 43.05,0 43.04,-65.4 0,-65.4z"/>
  <path class="fil0" d="M406.54 1076.12c-95.7,0 -95.67,-145.43 0,-145.43 95.67,0 95.71,145.43 0,145.43zm0 -105.43c-43.04,0 -43.05,65.4 0,65.4 43.05,0 43.04,-65.4 0,-65.4z"/>
  <path class="fil0" d="M361.28 1340.48c-28.25,0 -20,-42.94 -20,-83.48 0,-26.33 40,-26.32 40,0 0,40.61 8.25,83.48 -20,83.48z"/>
  <path class="fil0" d="M525.31 1340.48c-28.24,0 -20,-42.94 -20,-83.48 0,-26.33 40,-26.32 40,0 0,40.57 8.25,83.48 -20,83.48z"/>
  <path class="fil0" d="M689.31 1340.48c-28.25,0 -20,-42.94 -20,-83.48 0,-26.33 40,-26.32 40,0 0,40.58 8.25,83.48 -20,83.48z"/>
  <path class="fil0" d="M853.32 1340.48c-28.24,0 -20,-42.94 -20,-83.48 0,-26.33 40,-26.32 40,0 0,40.57 8.25,83.48 -20,83.48z"/>
  <path class="fil0" d="M1017.35 1340.48c-28.25,0 -20,-42.94 -20,-83.48 0,-26.33 40,-26.32 40,0 0,40.55 8.24,83.48 -20,83.48z"/>
  <path class="fil0" d="M1181.35 1340.48c-28.24,0 -20,-42.94 -20,-83.48 0,-26.33 40,-26.32 40,0 0,40.61 8.25,83.48 -20,83.48z"/>
  <path class="fil0" d="M1345.37 1340.48c-28.24,0 -20,-42.94 -20,-83.48 0,-26.33 40,-26.32 40,0 0,40.57 8.25,83.48 -20,83.48z"/>
 </g>
</svg>
